<?xml version="1.0" encoding="utf-8"?>
<!-- Generator: Adobe Illustrator 26.0.1, SVG Export Plug-In . SVG Version: 6.00 Build 0)  -->
<svg version="1.1" id="Layer_1" xmlns="http://www.w3.org/2000/svg" xmlns:xlink="http://www.w3.org/1999/xlink" x="0px" y="0px"
	 viewBox="0 0 612 792" style="enable-background:new 0 0 612 792;" xml:space="preserve">
<style type="text/css">
	.st0{fill:none;stroke:#FFFFFF;stroke-width:9.3369;stroke-miterlimit:10;}
	.st1{fill:none;stroke:#FFFFFF;stroke-width:12.2721;stroke-miterlimit:10;}
	.st2{fill:none;stroke:#FFFFFF;stroke-width:10.4151;stroke-miterlimit:10;}
	.st3{fill:none;stroke:#FFFFFF;stroke-width:11.761;stroke-miterlimit:10;}
	.st4{fill:none;stroke:#FFFFFF;stroke-width:11.1814;stroke-miterlimit:10;}
	.st5{fill:#FFFFFF;}
	.st6{fill:none;}
	.st7{fill:#FFFFFF;stroke:#FFFFFF;stroke-width:2.1783;stroke-miterlimit:10;}
	.st8{fill:#FFFFFF;stroke:#FDFEFE;stroke-width:2.2571;stroke-miterlimit:10;}
	.st9{font-family:'Gadugi';}
	.st10{font-size:38.8344px;}
</style>
<g>
	<g>
		<path class="st0" d="M114.81,439.82c3.56-3.55,61.56-59.88,112.7-58.2c0,0,8.77-27.07,8.77-25.72l18.78,40.6
			c1.27,3.04,23.85-144.02,24.87-139.46l33.99,177.36c0,2.71,16.02-70.36,17.53-66.32c0,0,20.04,31.13,17.53,27.07l22.85,0.25"/>
	</g>
	<g>
		<path class="st1" d="M114.57,446.43c-4.77-6.61-15.08-40.28-16.87-63.42c-9.19-119.14,80.97-219.3,194.9-221.8
			c154.56-3.04,251.99,144.41,204.06,288.19"/>
	</g>
	<g>
		<path class="st2" d="M368.66,396.52l46.38-52.43c31.2-37.84-9.46-89.85-40.94-55.77c0,0-0.11,0.13-0.11,0.13s-0.11-0.13-0.11-0.13
			c-11.99-14.56-31.41-14.56-43.39,0"/>
	</g>
	<g>
		<path class="st2" d="M330.48,288.33c-11.99,14.56-11.99,38.19,2.07,56.06l40.34,49.89"/>
	</g>
	<g>
		<line class="st3" x1="357.04" y1="330.78" x2="392.96" y2="330.78"/>
	</g>
	<g>
		<line class="st4" x1="374.99" y1="348.24" x2="374.99" y2="312.31"/>
	</g>
	<path class="st5" d="M233.18,296.43l0.06,0.17h-56.69c-0.97,0.08-1.96,0.12-2.96,0.11c-15.17-0.11-19.39-2.08-19.39-11.34
		c0-4.49,7.06-7.86,16.41-8.61c-0.47-1.05-0.72-2.17-0.72-3.34c0-5.94,6.46-10.75,14.42-10.75c3.03,0,5.85,0.7,8.17,1.9
		c3-5.89,9.86-10,17.84-10c10.76,0,19.48,7.48,19.48,16.71c0,1.06-0.11,2.09-0.34,3.09c1.08-0.3,2.19-0.57,3.29-0.78
		c5.96-1.69,16.53,2.8,16.53,14.03C251.39,296.6,244.01,296.31,233.18,296.43z"/>
	<g>
		<path class="st6" d="M324.11,414.06"/>
	</g>
	<g>
		<path class="st5" d="M330.53,407.95c76.54,8.38,151.34,36.57,210.5,86.75c0,0-0.92,1.14-0.92,1.14
			c-22.84-17.25-47.83-31.67-74.13-42.96c-34.92-14.9-72.02-24.52-109.68-28.85c-8.73-1.06-18.01-1.65-26.79-2.34
			c0,0-1.05-0.11-1.05-0.11c-0.6-0.1-1.2-0.21-1.8-0.35L330.53,407.95L330.53,407.95z"/>
	</g>
	<g>
		<path class="st5" d="M301.41,420.55c-4.57,0.81-11.5,1.02-16.19,1.38c-65.81,3.8-131.24,20.76-189.15,52.61
			c-8.99,4.82-17.68,10.17-26.32,15.63c0,0-1.28-1.88-1.28-1.88c25.12-17.9,52.29-33.13,80.7-45.17
			c45.19-19.32,93.65-30.32,142.5-35.1c0,0,3.69-0.45,3.69-0.45s1.7-0.25,1.7-0.25c0.31-0.04,0.5-0.09,0.71-0.13
			c0,0,0.63-0.13,0.63-0.13L301.41,420.55L301.41,420.55z"/>
	</g>
	<g>
		<g>
			<path class="st7" d="M114.35,543.98v-56.3h10.3v56.3H114.35z M116.45,519.72v-7.53h41.67v7.53H116.45z M149.64,543.98v-56.3h10.3
				v56.3H149.64z"/>
			<path class="st7" d="M196.61,544.78c-17.31,0-25.97-9.51-25.97-28.54c0-19.56,8.66-29.33,25.97-29.33s25.97,9.77,25.97,29.33
				C222.58,535.26,213.92,544.78,196.61,544.78z M196.61,537.48c10.24,0,15.37-7.08,15.37-21.24c0-14.7-5.12-22.04-15.37-22.04
				c-10.24,0-15.37,7.35-15.37,22.04C181.26,530.39,186.38,537.48,196.61,537.48z"/>
			<path class="st7" d="M233.29,543.98v-56.3h10.3v56.3H233.29z M242.9,522.58v-7.53h14.57c3.93,0,6.99-0.83,9.2-2.49
				c2.2-1.66,3.29-4.01,3.29-7.02c0-3.3-1.09-5.84-3.29-7.64c-2.2-1.78-5.27-2.68-9.2-2.68H243.1l-1.19-7.53h15.56
				c7.3,0,12.94,1.48,16.92,4.43c3.98,2.96,5.97,7.16,5.97,12.61c0,5.65-1.98,10.05-5.97,13.17s-9.63,4.68-16.92,4.68H242.9z
				 M271.04,543.98l-15.76-26.49h10.9l16.74,26.49H271.04z"/>
			<path class="st7" d="M320.04,543.98 M293.43,543.98v-56.3h10.3v56.3H293.43z"/>
			<path class="st7" d="M316.78,495.22v-7.53h44.6v7.53H316.78z M324.32,541.29l-7.53-4.83L353.85,490l7.53,5.23L324.32,541.29z
				 M316.78,543.98v-7.53h45.58v7.53H316.78z"/>
			<path class="st7" d="M398.54,542.53c-17.31,0-25.97-9.51-25.97-28.54c0-19.56,8.66-29.33,25.97-29.33s25.97,9.77,25.97,29.33
				C424.51,533.02,415.85,542.53,398.54,542.53z M398.54,535.24c10.23,0,15.37-7.08,15.37-21.24c0-14.7-5.12-22.04-15.37-22.04
				s-15.37,7.35-15.37,22.04C383.19,528.15,388.31,535.24,398.54,535.24z"/>
			<path class="st7" d="M435.61,541.74v-56.3h10.3v56.3H435.61z M467.12,541.74l-20.21-42.81h-4.56v-13.48h6.54l20.21,42.81h2.47
				v13.48H467.12z M470.09,541.74v-56.3h10.3v56.3H470.09z"/>
		</g>
	</g>
	<text transform="matrix(1.149 0 0 1 119.0562 582.6201)" class="st8 st9 st10">HEALTH SYSTEMS</text>
</g>
</svg>
